# xmcd
#
# Track frame offsets:
#	150
#	16131
#	32013
#	48740
#	67754
#	85256
#	101346
#	116226
#	131057
#	143108
#	158792
#	175283
#	190664
#	208350
#	222561
#	236894
#	250044
#	260979
#	282823
#
# Disc length: 4019 seconds
#
# Revision: 1
# Processed by: cddbd v1.5.2PL0 Copyright (c) Steve Scherf et al.
# Submitted via: audiograbber 1.83.01
#
DISCID=1f0fb113
DTITLE=Various Artist - Hott Country 154
DYEAR=2008
DGENRE=Country
TTITLE0=Zac Brown Band - Chicken Fried ( Radio Edit )
TTITLE1=Toby Keith - God Love Her
TTITLE2=Kellie Pickler - Best Days Of Your Life
TTITLE3=Kenny Chesney - Got A Little Crazy
TTITLE4=Martina McBride - Ride
TTITLE5=Whitney Duncan - When I Said I Would
TTITLE6=Gary Allan - She's So California
TTITLE7=Heidi Newfield - Cry Cry ( 'Til The Sun Shines )
TTITLE8=Lost Trailers - How 'Bout You Don't
TTITLE9=Emerson Drive - Belongs To You
TTITLE10=Tara Oram - 538 Stars
TTITLE11=Julianne Hough - My Halleujuah Song
TTITLE12=Doc Walker - One Last Sundown
TTITLE13=George Strait - River Of Love
TTITLE14=Rehab Feat Hanj Williams Jr. - Bartender Song ( Remix )
TTITLE15=Rascal Flatts - Jingle Bell Rock
TTITLE16=George Strait - Jingle Bells
TTITLE17=Faith Hill - It Started With A Baby
TTITLE18=Carrie Underwood - Do You Hear What I Hear ( 2002 )
EXTD=December 2008
EXTT0=
EXTT1=
EXTT2=
EXTT3=
EXTT4=
EXTT5=
EXTT6=
EXTT7=
EXTT8=
EXTT9=
EXTT10=
EXTT11=
EXTT12=
EXTT13=
EXTT14=
EXTT15=
EXTT16=
EXTT17=
EXTT18=
PLAYORDER=
